PathFileType	4	(X/Y/Z)	C:\Users\Basilio\Documents\Thesis Gigler\squatting_fais\c3dfiles\040\SJ_pre1\markers_experimental.trc
DataRate	CameraRate	NumFrames	NumMarkers	Units	OrigDataRate	OrigDataStartFrame	OrigNumFrames
200.000000	200.000000	4	62	mm	200.000000	0	1174
Frame#	Time	FHD			LBHD			RBHD			C7			T10			CLAV			LSHO			LUUPA			LMUPA			LDUPA			LLEP			LMEP			LRAD			LUL			LRFIN			RSHO			RUPA1			RMUPA			RDUPA			RLEP			RMEP			RRAD			RUL			RUFIN			LASI			RASI			USACR			LSACR			RSACR			LTHI1			LTHI2			LTHI3			LTHI4			LLFC			LMFC			LTIB1			LTIB2			LTIB3			LTIB4			LLMAL			LMMAL			LHEE			LMT1			LMT2			LMT5			RTHI			RTHI2			RTHI3			RTHI4			RLFC			RMFC			RTIB1			RTIB2			RTIB3			RTIB4			RLMAL			RMMAL			RHEE			RMT1			RMT2			RMT5			*61			
		X1	Y1	Z1	X2	Y2	Z2	X3	Y3	Z3	X4	Y4	Z4	X5	Y5	Z5	X6	Y6	Z6	X7	Y7	Z7	X8	Y8	Z8	X9	Y9	Z9	X10	Y10	Z10	X11	Y11	Z11	X12	Y12	Z12	X13	Y13	Z13	X14	Y14	Z14	X15	Y15	Z15	X16	Y16	Z16	X17	Y17	Z17	X18	Y18	Z18	X19	Y19	Z19	X20	Y20	Z20	X21	Y21	Z21	X22	Y22	Z22	X23	Y23	Z23	X24	Y24	Z24	X25	Y25	Z25	X26	Y26	Z26	X27	Y27	Z27	X28	Y28	Z28	X29	Y29	Z29	X30	Y30	Z30	X31	Y31	Z31	X32	Y32	Z32	X33	Y33	Z33	X34	Y34	Z34	X35	Y35	Z35	X36	Y36	Z36	X37	Y37	Z37	X38	Y38	Z38	X39	Y39	Z39	X40	Y40	Z40	X41	Y41	Z41	X42	Y42	Z42	X43	Y43	Z43	X44	Y44	Z44	X45	Y45	Z45	X46	Y46	Z46	X47	Y47	Z47	X48	Y48	Z48	X49	Y49	Z49	X50	Y50	Z50	X51	Y51	Z51	X52	Y52	Z52	X53	Y53	Z53	X54	Y54	Z54	X55	Y55	Z55	X56	Y56	Z56	X57	Y57	Z57	X58	Y58	Z58	X59	Y59	Z59	X60	Y60	Z60	X61	Y61	Z61	X62	Y62	Z62	

1	0	-79.98982238769533	1672.786254882813	-901.1392211914065	-214.3251495361329	1688.468994140625	-947.3967285156252	-282.4850769042969	1677.097045898438	-817.1638793945315	-346.7910461425782	1560.3095703125	-867.7642211914065	-432.778533935547	1236.571411132813	-862.5565185546877	-233.1968231201172	1465.90087890625	-855.1614379882815	-266.8501586914063	1519.961303710938	-1032.862426757813	-342.8791198730469	1403.416259765625	-1187.040649414063	-331.5374755859376	1355.21875	-1182.939086914063	-369.6489868164063	1355.439575195313	-1230.369873046875	-403.7052612304689	1311.662841796875	-1271.209838867188	-469.5302734375001	1314.528198242188	-1231.282348632813	-404.3342285156251	1083.708374023438	-1084.842529296875	-363.0938110351563	1051.709106445313	-1138.900268554688	-351.9785156250001	1091.306762695313	-1045.706787109375	-289.9307250976563	1512.557983398438	-684.4122924804689	-416.2132568359376	1428.216186523438	-542.6744384765626	-398.8599853515626	1382.806640625	-530.4623413085939	-448.8801879882814	1386.635620117188	-496.9615478515626	-470.3283691406251	1329.171508789063	-458.2988586425782	-531.2935791015626	1315.0595703125	-516.2254028320314	-385.9236755371095	1119.000366210938	-635.6872558593751	-368.6681213378907	1080.332275390625	-572.5429077148439	-322.5319213867188	1105.92431640625	-667.8707275390626	-250.9404602050782	1042.85595703125	-959.0510864257815	-260.9425964355469	1044.56640625	-734.3445434570314	-443.2493591308595	1095.634765625	-853.0520019531252	-448.0993957519532	1065.696166992188	-881.0193481445315	-454.2984619140626	1065.310791015625	-826.165222167969	-380.7348327636719	801.690612792969	-1050.156372070313	-342.8333129882813	728.4073486328126	-1067.986328125	-295.7725219726563	733.1773681640626	-1069.362426757813	-364.0740966796876	673.3539428710939	-1059.057739257813	-342.0325622558594	542.3419799804689	-1068.61767578125	-336.3383483886719	504.6379699707032	-941.7822265625002	-310.8883972167969	316.1781311035157	-1061.730102539063	-381.6050415039063	284.8497314453126	-1104.746948242188	-339.8076782226563	274.2840881347657	-1092.667114257813	-331.2233886718751	190.8501281738282	-1068.127807617188	-400.4190979003907	101.9221954345703	-1092.183471679688	-362.1306457519532	109.2789688110352	-1009.580932617188	-450.4167785644532	43.48308944702149	-1046.292114257813	-226.0651092529297	58.35758590698244	-1045.612182617188	-232.6331787109376	56.08190155029298	-1091.2080078125	-284.4681701660157	31.77025604248048	-1137.116333007813	-350.1220092773438	797.4321899414065	-646.9616699218751	-321.4435729980469	737.3750610351564	-642.7822875976564	-288.6242980957032	735.5616455078126	-646.4091186523439	-356.9049377441407	662.5683593750001	-649.0634155273439	-361.0039978027344	527.3553466796876	-646.7078247070314	-342.9994201660157	505.5960693359376	-776.9088134765627	-324.8130187988282	336.9182739257813	-645.7988281250001	-402.7351684570314	267.6672058105469	-623.8518066406251	-357.2801513671876	259.8425598144532	-625.6558837890626	-340.8905639648438	209.8381500244141	-653.5894165039064	-402.5693664550782	100.8656997680664	-631.3343505859376	-368.9463500976563	106.6265411376953	-714.8596191406251	-451.593231201172	47.0106315612793	-691.3206787109376	-230.1194000244141	57.41888427734376	-660.0248413085939	-240.5144042968751	59.57870101928712	-620.4890747070314	-290.6022949218751	35.32483673095704	-575.7846069335939	nan	nan	nan	
2	0.005	-79.75878143310548	1672.76318359375	-900.8099365234377	-213.9984283447266	1688.401245117188	-947.2792968750002	-282.3050231933594	1677.100219726563	-817.2006835937502	-346.5807495117188	1560.324584960938	-867.6961669921877	-432.8487548828126	1236.66845703125	-862.573425292969	-233.1386718750001	1465.823608398438	-855.045837402344	-266.7032775878907	1519.858764648438	-1032.760498046875	-342.6905517578126	1403.389282226563	-1186.922241210938	-331.3996582031251	1355.131469726563	-1182.8359375	-369.5359497070313	1355.410034179688	-1230.311645507813	-403.6101074218751	1311.643798828125	-1271.128662109375	-469.4241638183595	1314.58935546875	-1231.24755859375	-404.5015258789064	1083.654296875	-1084.830932617188	-363.2803039550782	1051.662109375	-1138.848388671875	-352.2214660644532	1091.302124023438	-1045.711059570313	-289.8587646484376	1512.52587890625	-684.3359375000001	-416.2700195312501	1428.108154296875	-542.6975708007814	-398.8221130371095	1382.678588867188	-530.6118774414064	-448.9430236816407	1386.504272460938	-497.0025939941407	-470.3855590820314	1329.03759765625	-458.3941345214845	-531.3237304687501	1314.867553710938	-516.2994384765626	-385.6970825195314	1118.95263671875	-635.8142089843751	-368.3725280761719	1080.27001953125	-572.7176513671876	-322.2605895996094	1105.800170898438	-668.1741943359376	-251.2263183593751	1042.82275390625	-958.9697265625002	-261.2029418945313	1044.475463867188	-734.4190673828126	-443.4824829101564	1095.759155273438	-853.0686035156252	-448.333709716797	1065.855102539063	-881.0386352539065	-454.5276184082032	1065.426025390625	-826.1570434570315	-380.9192199707032	801.6411743164065	-1050.094970703125	-342.9740600585938	728.3646240234376	-1067.990356445313	-295.2486267089844	732.7292480468751	-1069.302124023438	-364.1480712890626	673.2960815429689	-1059.0234375	-342.0224609375001	542.3008422851564	-1068.6123046875	-336.2789916992188	504.5889892578126	-941.8149414062502	-310.8303833007813	316.2010192871094	-1061.740966796875	-381.6237487792969	284.8210449218751	-1104.695434570313	-339.7630310058594	274.2910461425782	-1092.641479492188	-331.2275390625001	190.81494140625	-1068.13037109375	-400.4273071289064	101.9136428833008	-1092.177490234375	-362.0774841308594	109.2731246948242	-1009.589660644531	-450.4159240722657	43.46911621093751	-1046.262939453125	-226.0119934082032	58.38945388793947	-1045.595336914063	-232.5842895507813	56.07363510131837	-1091.208129882813	-284.4666137695313	31.77101707458497	-1137.1455078125	-350.3730773925782	797.3956298828127	-646.9859008789064	-321.5950622558594	737.3702392578126	-642.8400268554689	-288.7596740722657	735.5333251953126	-646.4676513671876	-357.6467590332032	662.1315307617189	-649.3959960937501	-361.0382385253907	527.3188476562501	-646.7103271484376	-342.9994201660157	505.5960693359376	-776.9088134765627	-324.6436767578126	337.2117004394532	-645.5239868164064	-402.7431945800782	267.6464538574219	-623.9272460937501	-357.3110046386719	259.8439025878907	-625.6630859375001	-340.8638000488282	209.8471832275391	-653.5647583007814	-402.5696716308595	100.8886260986328	-631.3498535156251	-369.4271545410157	107.2207336425782	-714.8505249023439	-451.5799865722657	47.00164031982423	-691.3428344726564	-230.1610870361329	57.50685882568361	-660.0524902343751	-241.2032165527344	59.30044174194337	-621.1795043945314	-290.5455932617188	35.34099578857423	-575.7970581054689	nan	nan	nan	
3	0.01	-79.53950500488283	1672.878173828125	-900.4597167968752	-213.7190399169922	1688.328491210938	-947.186706542969	-282.0322875976563	1677.07763671875	-817.1936035156252	-346.4283752441407	1560.346923828125	-867.5670166015627	-432.9222412109376	1236.787475585938	-862.6148071289065	-232.9472961425782	1465.758666992188	-854.9224853515627	-266.5360717773438	1519.806640625	-1032.700805664063	-342.5734558105469	1403.304565429688	-1186.816650390625	-331.2934570312501	1355.051879882813	-1182.702270507813	-369.3940124511719	1355.37353515625	-1230.213012695313	-403.5019836425782	1311.638671875	-1271.055053710938	-469.3379211425782	1314.649169921875	-1231.215942382813	-404.7180175781251	1083.6376953125	-1084.78515625	-363.5095520019532	1051.582641601563	-1138.776000976563	-352.3421936035157	1091.268676757813	-1045.674926757813	-289.7812805175782	1512.487426757813	-684.2591552734376	-416.2596435546876	1428.01318359375	-542.6644897460939	-398.1118469238282	1383.238525390625	-529.8444824218751	-448.8772888183595	1386.372680664063	-497.0355529785157	-470.2741088867189	1328.793823242188	-458.4849548339845	-531.3037719726564	1314.683349609375	-516.3812866210939	-385.5341186523439	1118.890502929688	-635.9375610351564	-368.2547302246094	1080.203857421875	-572.7799682617189	-322.0874938964844	1105.715209960938	-668.4157714843751	-251.5442504882813	1042.756469726563	-958.928649902344	-261.3980712890626	1044.322509765625	-734.4772338867189	-443.6758422851564	1095.894165039063	-853.0836181640627	-448.5986938476564	1066.020385742188	-881.0173339843752	-454.7585754394532	1065.606201171875	-826.097595214844	-381.1633300781251	801.5653076171877	-1050.03515625	-343.0900878906251	728.3129882812501	-1067.93603515625	-295.4307861328126	732.7320556640626	-1069.300170898438	-364.1827392578126	673.2371215820314	-1058.977294921875	-341.9760742187501	542.2800292968751	-1068.630249023438	-336.2362365722657	504.525604248047	-941.7406005859377	-310.7527770996094	316.1697692871094	-1061.756103515625	-381.6239624023438	284.8210144042969	-1104.6953125	-339.7185058593751	274.2980346679688	-1092.615966796875	-331.2223815917969	190.8112030029297	-1068.166015625	-400.4037170410157	101.9055252075196	-1092.184326171875	-362.0804443359376	109.245964050293	-1009.604187011719	-450.4114379882814	43.48564147949219	-1046.267456054688	-226.0997924804688	58.40120697021486	-1045.618896484375	-232.5463256835938	56.07024383544923	-1091.2509765625	-284.4666137695313	31.77101135253907	-1137.1455078125	-350.6923522949219	797.356872558594	-646.9839477539064	-321.9390869140626	737.3280639648439	-642.8455810546876	-289.0535278320313	735.5215454101564	-646.4534912109376	-357.7721557617188	662.1057739257814	-649.4299926757814	-361.0138549804688	527.3315429687501	-646.6875000000001	-343.0287475585938	505.5700073242189	-776.9396972656252	-324.6218261718751	337.2091064453126	-645.5619506835939	-402.7806396484376	267.6716918945313	-623.9136352539064	-357.3006286621094	259.8514709472657	-625.6937866210939	-340.8790893554688	209.8452606201172	-653.5986938476564	-402.5538024902345	100.8853073120117	-631.3599243164064	-368.9722290039063	106.6482849121094	-714.8998413085939	-451.5906982421876	46.98785400390626	-691.3127441406251	-230.2398071289063	57.51647567749025	-660.1024169921876	-240.5331420898438	59.58852386474611	-620.5458374023439	-290.5652465820313	35.34430694580079	-575.8244628906251	nan	nan	nan	
4	0.015	-79.0786590576172	1673.027587890625	-900.1359863281252	-213.4872283935547	1688.276123046875	-947.0899658203127	-281.9880676269532	1677.070190429688	-817.1734008789065	-346.2366333007813	1560.333374023438	-867.493347167969	-433.0222778320314	1236.892944335938	-862.6284790039065	-232.7718200683594	1465.675048828125	-854.7559814453127	-266.3427734375001	1519.737060546875	-1032.621337890625	-342.3475646972657	1403.224243164063	-1186.717041015625	-331.2377624511719	1354.9599609375	-1182.61669921875	-369.2472534179688	1355.3154296875	-1230.116333007813	-403.3592529296876	1311.578491210938	-1270.952392578125	-469.2049255371095	1314.70263671875	-1231.179931640625	-404.9157714843751	1083.634521484375	-1084.755981445313	-363.7570495605469	1051.558227539063	-1138.75830078125	-352.6160583496094	1091.248779296875	-1045.664916992188	-289.6890869140626	1512.4462890625	-684.1141357421876	-416.3859863281251	1427.833374023438	-542.5923461914064	-398.9622802734376	1382.296264648438	-530.4794311523439	-448.8985595703126	1386.229858398438	-497.0427856445314	-470.2996826171876	1328.6416015625	-458.5306701660157	-531.2923583984376	1314.459350585938	-516.4499511718751	-385.3352966308595	1118.879028320313	-636.0296020507814	-368.0918273925782	1080.203369140625	-572.8250732421876	-322.0098571777344	1105.633178710938	-668.6105957031251	-251.8802337646485	1042.636474609375	-958.8076782226565	-261.6126403808594	1044.157470703125	-734.5958251953126	-443.9306945800782	1096.01953125	-853.0745849609377	-448.9042968750001	1066.17431640625	-880.961853027344	-455.0973205566407	1065.796997070313	-826.0861816406252	-381.3558654785157	801.4588623046877	-1049.938354492188	-343.2527770996094	728.2865600585939	-1067.925659179688	-296.2083129882813	733.1632080078126	-1069.407592773438	-364.2719421386719	673.1860961914064	-1058.917236328125	-341.9655456542969	542.2639770507814	-1068.631713867188	-336.1017150878907	504.4747009277345	-941.7395019531252	-310.7205810546876	316.1187744140626	-1061.786010742188	-381.5607604980469	284.8099060058594	-1104.67529296875	-339.7630310058594	274.2910461425782	-1092.641479492188	-331.1923522949219	190.7935638427735	-1068.14306640625	-400.4521484375001	101.9343185424805	-1092.192993164063	-362.0689697265626	109.2617263793946	-1009.592102050781	-450.4060363769532	43.49966430664063	-1046.268676757813	-226.0370330810547	58.343807220459	-1045.6015625	-232.6241760253907	56.05459594726564	-1091.232666015625	-284.4678344726563	31.74767875671387	-1137.149658203125	-350.8974609375001	797.2724609375002	-646.9792480468751	-322.0572509765626	737.3189697265626	-642.8649291992189	-289.2080383300782	735.5159912109376	-646.4261474609376	-357.8677673339844	662.0805053710939	-649.4851684570314	-360.9809570312501	527.3175659179689	-646.6629028320314	-343.0733337402344	505.6007385253907	-776.921081542969	-324.7220153808594	336.9100036621094	-645.9053955078126	-402.7348022460939	267.6631164550782	-623.9105224609376	-357.3055114746094	259.8330383300782	-625.6831665039064	-340.8690185546876	209.848373413086	-653.6062011718751	-402.5464477539064	100.8771667480469	-631.3535156250001	-369.4350280761719	107.2012634277344	-714.8699340820314	-451.623992919922	46.97618484497071	-691.3412475585939	-230.2154846191407	57.57678604125978	-660.1260986328126	-241.2117614746094	59.33709716796876	-621.2165527343751	-290.5599060058594	35.35144042968751	-575.8146972656251	nan	nan	nan	
